#!OML:ASF G:\JayActor3\Patient Classification 1\Patient 1\Session 6\male.ASF
:FULLY-SPECIFIED
:DEGREES
1785
root -35.0309 15.1735 -12.9711 541.778 -12.2828 -535.594
lowerback 25.4547 0.0695784 2.39191
upperback 7.9606 -0.841242 1.64743
thorax -5.29718 -1.09665 0.732284
lowerneck 15.0106 -0.550762 3.72075
upperneck -9.96387 -0.123803 -1.13989
head -5.45782 -0.123222 -0.949161
rclavicle 3.37934e-015 6.95746e-015
rhumerus -30.9241 12.9605 -83.869
rradius 119.588
rwrist 13.5106
rhand 14.1659 -17.1129
rfingers 7.12502
rthumb 39.066 -42.614
lclavicle 3.37934e-015 6.95746e-015
lhumerus -37.3499 -1.15524 82.1256
lradius 124.417
lwrist 8.76617
lhand 3.70679 30.3923
lfingers 7.12502
lthumb 29.1357 58.1326
rfemur -39.6876 -7.95376 23.8707
rtibia 62.9762
rfoot -23.6998 -10.0322
rtoes -10.4127
lfemur -36.2857 20.0989 -17.0072
ltibia 60.921
lfoot -26.0694 3.64889
ltoes -13.25
1786
root -35.0262 15.1827 -12.9773 541.825 -12.3013 -535.595
lowerback 25.4652 0.0735994 2.38242
upperback 7.93527 -0.830106 1.68407
thorax -5.3297 -1.08998 0.775167
lowerneck 15.0113 -0.552522 3.70573
upperneck -10.0186 -0.129352 -1.14094
head -5.47529 -0.125784 -0.946723
rclavicle 1.88845e-014 2.78299e-015
rhumerus -30.9353 12.9403 -83.7802
rradius 119.646
rwrist 13.4729
rhand 14.0972 -17.0973
rfingers 7.12502
rthumb 39.0012 -42.617
lclavicle 1.88845e-014 2.78299e-015
lhumerus -37.3668 -1.13231 82.1184
lradius 124.473
lwrist 8.78329
lhand 3.61438 30.3388
lfingers 7.12502
lthumb 29.0475 58.0944
rfemur -39.6355 -7.89843 23.8884
rtibia 62.8508
rfoot -23.7179 -10.0697
rtoes -10.3006
lfemur -36.2382 20.0684 -16.9946
ltibia 60.7788
lfoot -26.0291 3.66071
ltoes -13.3524
1787
root -35.0217 15.1914 -12.9828 541.871 -12.323 -535.593
lowerback 25.4767 0.0765839 2.38134
upperback 7.90879 -0.817967 1.72034
thorax -5.36397 -1.0827 0.812605
lowerneck 14.9998 -0.558059 3.7008
upperneck -10.0624 -0.139405 -1.14955
head -5.48744 -0.130283 -0.947865
rclavicle -2.18663e-015 -2.11706e-014
rhumerus -30.9443 12.9117 -83.6922
rradius 119.694
rwrist 13.4473
rhand 14.041 -17.0806
rfingers 7.12502
rthumb 38.9482 -42.6155
lclavicle -2.18663e-015 -2.11706e-014
lhumerus -37.3813 -1.11382 82.1098
lradius 124.527
lwrist 8.80104
lhand 3.5241 30.2952
lfingers 7.12502
lthumb 28.9613 58.0656
rfemur -39.5891 -7.84041 23.9077
rtibia 62.7301
rfoot -23.737 -10.1068
rtoes -10.1848
lfemur -36.1991 20.0261 -16.9802
ltibia 60.6432
lfoot -25.9864 3.67331
ltoes -13.4189
1788
root -35.0175 15.1998 -12.988 541.917 -12.3469 -535.589
lowerback 25.4817 0.0745485 2.39971
upperback 7.88664 -0.80907 1.74506
thorax -5.39051 -1.07692 0.82699
lowerneck 14.9936 -0.564543 3.70017
upperneck -10.1138 -0.148424 -1.14831
head -5.50288 -0.135307 -0.946697
rclavicle 1.77415e-014 -3.15074e-014
rhumerus -30.948 12.8727 -83.6223
rradius 119.737
rwrist 13.4331
rhand 13.9963 -17.0748
rfingers 7.12502
rthumb 38.9061 -42.6217
lclavicle 1.77415e-014 -3.15074e-014
lhumerus -37.3867 -1.1051 82.0791
lradius 124.581
lwrist 8.82355
lhand 3.43333 30.2512
lfingers 7.12502
lthumb 28.8745 58.0364
rfemur -39.5469 -7.78721 23.9296
rtibia 62.6135
rfoot -23.7511 -10.1495
rtoes -10.0948
lfemur -36.1642 19.9742 -16.9643
ltibia 60.5136
lfoot -25.9444 3.68988
ltoes -13.4509
1789
root -35.0136 15.2078 -12.9929 541.96 -12.3713 -535.579
lowerback 25.475 0.0644796 2.44718
upperback 7.87268 -0.806204 1.75145
thorax -5.40249 -1.07407 0.806019
lowerneck 14.9886 -0.570766 3.70104
upperneck -10.1716 -0.153487 -1.1212
head -5.52042 -0.14059 -0.937947
rclavicle -9.34288e-015 -5.66536e-015
rhumerus -30.9412 12.8214 -83.5831
rradius 119.773
rwrist 13.4335
rhand 13.9574 -17.0839
rfingers 7.12502
rthumb 38.8693 -42.6412
lclavicle -9.34288e-015 -5.66536e-015
lhumerus -37.3778 -1.1059 82.0172
lradius 124.629
lwrist 8.84555
lhand 3.36237 30.2167
lfingers 7.12502
lthumb 28.8068 58.0136
rfemur -39.5082 -7.74225 23.9564
rtibia 62.5014
rfoot -23.7639 -10.1882
rtoes -10.0061
lfemur -36.1333 19.9248 -16.9455
ltibia 60.3906
lfoot -25.9034 3.70664
ltoes -13.4793
1790
root -35.0097 15.2154 -12.9976 542.001 -12.3976 -535.569
lowerback 25.462 0.0490734 2.50857
upperback 7.86296 -0.808345 1.74594
thorax -5.40686 -1.07358 0.765307
lowerneck 14.9871 -0.576143 3.71246
upperneck -10.2348 -0.154472 -1.08885
head -5.54019 -0.144832 -0.929616
rclavicle 1.50579e-014 -2.56432e-014
rhumerus -30.9294 12.7636 -83.564
rradius 119.801
rwrist 13.4425
rhand 13.9271 -17.0998
rfingers 7.12502
rthumb 38.8408 -42.6652
lclavicle 1.50579e-014 -2.56432e-014
lhumerus -37.3613 -1.10729 81.9374
lradius 124.671
lwrist 8.86208
lhand 3.31302 30.188
lfingers 7.12502
lthumb 28.7596 57.9929
rfemur -39.4729 -7.70941 23.9857
rtibia 62.3948
rfoot -23.7706 -10.2313
rtoes -9.93816
lfemur -36.1049 19.8771 -16.9267
ltibia 60.2733
lfoot -25.8667 3.71625
ltoes -13.4753
1791
root -35.0059 15.2225 -13.0023 542.039 -12.4246 -535.56
lowerback 25.4424 0.0300366 2.58251
upperback 7.85929 -0.814127 1.72727
thorax -5.40153 -1.07489 0.703826
lowerneck 14.9977 -0.580474 3.73068
upperneck -10.3097 -0.150663 -1.04473
head -5.56554 -0.148112 -0.919108
rclavicle 1.83379e-014 4.07509e-015
rhumerus -30.9141 12.6942 -83.5685
rradius 119.826
rwrist 13.461
rhand 13.9034 -17.1228
rfingers 7.12502
rthumb 38.8184 -42.6946
lclavicle 1.83379e-014 4.07509e-015
lhumerus -37.337 -1.1171 81.8396
lradius 124.709
lwrist 8.86928
lhand 3.28834 30.1795
lfingers 7.12502
lthumb 28.736 57.9883
rfemur -39.4387 -7.67841 24.0135
rtibia 62.2962
rfoot -23.7825 -10.2732
rtoes -9.86547
lfemur -36.0772 19.8415 -16.9106
ltibia 60.1619
lfoot -25.8311 3.72523
ltoes -13.5034
1792
root -35.0021 15.2291 -13.0069 542.075 -12.4548 -535.56
lowerback 25.4261 0.0114538 2.63968
upperback 7.85571 -0.8234 1.70939
thorax -5.39776 -1.07799 0.65392
lowerneck 15.0179 -0.581695 3.74731
upperneck -10.3853 -0.143125 -1.00508
head -5.59262 -0.149194 -0.910092
rclavicle 4.67144e-015 -5.96354e-015
rhumerus -30.9007 12.631 -83.5745
rradius 119.846
rwrist 13.4803
rhand 13.8855 -17.1385
rfingers 7.12502
rthumb 38.8015 -42.7151
lclavicle 4.67144e-015 -5.96354e-015
lhumerus -37.316 -1.11858 81.75
lradius 124.741
lwrist 8.85884
lhand 3.28446 30.1661
lfingers 7.12502
lthumb 28.7323 57.9756
rfemur -39.4057 -7.64522 24.0303
rtibia 62.2073
rfoot -23.7983 -10.3172
rtoes -9.77634
lfemur -36.0481 19.8053 -16.9039
ltibia 60.0548
lfoot -25.7997 3.72701
ltoes -13.4953
1793
root -34.9981 15.2353 -13.0113 542.11 -12.4888 -535.575
lowerback 25.4243 0.000208483 2.65733
upperback 7.8447 -0.830311 1.70634
thorax -5.40914 -1.08 0.642628
lowerneck 15.0379 -0.581513 3.75176
upperneck -10.4436 -0.137548 -0.976559
head -5.61424 -0.149635 -0.902414
rclavicle 7.65321e-015 -2.01766e-014
rhumerus -30.8984 12.5811 -83.5578
rradius 119.863
rwrist 13.4934
rhand 13.8737 -17.1465
rfingers 7.12502
rthumb 38.7904 -42.7262
lclavicle 7.65321e-015 -2.01766e-014
lhumerus -37.3109 -1.11081 81.6936
lradius 124.769
lwrist 8.82855
lhand 3.29905 30.1606
lfingers 7.12502
lthumb 28.7463 57.9677
rfemur -39.3755 -7.61299 24.0307
rtibia 62.1301
rfoot -23.823 -10.3543
rtoes -9.66057
lfemur -36.0175 19.7592 -16.912
ltibia 59.9516
lfoot -25.7695 3.74265
ltoes -13.4839
1794
root -34.9941 15.241 -13.0154 542.144 -12.5265 -535.601
lowerback 25.4383 -0.00329374 2.63761
upperback 7.82623 -0.833783 1.71955
thorax -5.4363 -1.08047 0.670024
lowerneck 15.0578 -0.580477 3.74028
upperneck -10.4819 -0.135018 -0.955804
head -5.62955 -0.150001 -0.894303
rclavicle 3.11098e-014 -4.96962e-015
rhumerus -30.9087 12.5466 -83.5186
rradius 119.88
rwrist 13.5007
rhand 13.8697 -17.1517
rfingers 7.12502
rthumb 38.7866 -42.7325
lclavicle 3.11098e-014 -4.96962e-015
lhumerus -37.3233 -1.09906 81.6697
lradius 124.797
lwrist 8.78649
lhand 3.30382 30.1421
lfingers 7.12502
lthumb 28.7508 57.9484
rfemur -39.3491 -7.58193 24.0194
rtibia 62.0649
rfoot -23.846 -10.4011
rtoes -9.58986
lfemur -35.9859 19.7026 -16.9306
ltibia 59.8532
lfoot -25.7399 3.76299
ltoes -13.4434
1795
root -34.9899 15.2459 -13.0192 542.177 -12.5677 -535.634
lowerback 25.4635 -0.00112817 2.59543
upperback 7.80193 -0.833452 1.74495
thorax -5.47523 -1.0791 0.722878
lowerneck 15.0702 -0.581179 3.72048
upperneck -10.4989 -0.137976 -0.944175
head -5.63702 -0.151684 -0.887195
rclavicle -1.03368e-014 1.32192e-014
rhumerus -30.9266 12.5216 -83.464
rradius 119.889
rwrist 13.5045
rhand 13.8703 -17.1532
rfingers 7.12502
rthumb 38.7873 -42.7339
lclavicle -1.03368e-014 1.32192e-014
lhumerus -37.3464 -1.08881 81.6716
lradius 124.825
lwrist 8.74131
lhand 3.31123 30.1307
lfingers 7.12502
lthumb 28.7579 57.9358
rfemur -39.3289 -7.5512 24.0035
rtibia 62.0122
rfoot -23.866 -10.464
rtoes -9.57257
lfemur -35.9586 19.6392 -16.9542
ltibia 59.7625
lfoot -25.7087 3.78653
ltoes -13.3879
1796
root -34.9857 15.2501 -13.0228 542.208 -12.6101 -535.668
lowerback 25.4949 0.00410569 2.54093
upperback 7.77481 -0.831225 1.77745
thorax -5.52024 -1.07685 0.790219
lowerneck 15.0709 -0.583824 3.70165
upperneck -10.4942 -0.145188 -0.943085
head -5.63577 -0.154383 -0.883147
rclavicle -1.27222e-014 4.04527e-014
rhumerus -30.9463 12.5067 -83.4028
rradius 119.89
rwrist 13.5053
rhand 13.8717 -17.1512
rfingers 7.12502
rthumb 38.7886 -42.7314
lclavicle -1.27222e-014 4.04527e-014
lhumerus -37.3752 -1.08033 81.6854
lradius 124.854
lwrist 8.70663
lhand 3.32118 30.1353
lfingers 7.12502
lthumb 28.7674 57.9389
rfemur -39.3141 -7.5207 23.9861
rtibia 61.9714
rfoot -23.8848 -10.532
rtoes -9.58272
lfemur -35.9351 19.5746 -16.9785
ltibia 59.6811
lfoot -25.6789 3.80812
ltoes -13.3361
